<?xml version="1.0" standalone="no"?>
<!DOCTYPE svg PUBLIC "-//W3C//DTD SVG 20010904//EN"
 "http://www.w3.org/TR/2001/REC-SVG-20010904/DTD/svg10.dtd">
<svg version="1.0" xmlns="http://www.w3.org/2000/svg"
 width="1442.000000pt" height="1442.000000pt" viewBox="0 0 1442.000000 1442.000000"
 preserveAspectRatio="xMidYMid meet">
<metadata>
Created by potrace 1.14, written by Peter Selinger 2001-2017
</metadata>
<g transform="translate(0.000000,1442.000000) scale(0.100000,-0.100000)"
fill="#000000" stroke="none">
<path d="M6985 14413 c-191 -9 -404 -27 -577 -48 -1255 -157 -2449 -688 -3418
-1521 -63 -54 -198 -180 -299 -279 -156 -153 -240 -243 -453 -483 -27 -30 -32
-32 -76 -27 -95 11 -1249 95 -1310 95 -118 0 -232 -59 -297 -154 -69 -102 -64
-34 -95 -1217 -17 -658 -25 -1094 -19 -1122 12 -65 53 -142 103 -191 62 -63
136 -95 241 -106 48 -5 90 -11 92 -14 3 -3 -8 -76 -26 -163 -95 -485 -127
-857 -118 -1392 6 -361 19 -533 63 -831 174 -1185 670 -2297 1434 -3215 1084
-1301 2614 -2125 4290 -2309 491 -54 1116 -46 1600 20 2001 274 3757 1461
4769 3222 127 221 321 621 375 772 7 19 42 114 79 210 197 525 320 1080 379
1705 20 219 17 925 -5 1140 -24 230 -62 488 -98 675 -17 85 -31 159 -32 165
-1 5 31 13 71 16 164 15 290 125 328 286 19 81 -37 2189 -60 2253 -54 150
-194 250 -348 250 -53 0 -653 -43 -1117 -80 -223 -18 -203 -24 -296 87 -194
233 -596 620 -878 846 -966 773 -2154 1257 -3392 1382 -289 29 -659 40 -910
28z m536 -93 c926 -46 1753 -259 2564 -661 608 -300 1138 -678 1629 -1159 178
-175 422 -438 413 -446 -4 -5 -105 -13 -1187 -94 -628 -47 -880 -66 -1595
-120 -1484 -112 -1729 -130 -1750 -130 -23 0 -23 2 -27 128 -3 106 -7 134 -25
168 -27 51 -86 104 -116 104 -12 0 -73 5 -135 11 -136 12 -201 2 -262 -42 -63
-46 -79 -93 -87 -249 l-6 -131 -56 6 c-31 3 -567 44 -1191 91 -1328 99 -1326
99 -2190 164 -366 27 -768 57 -895 66 -126 8 -239 19 -249 23 -17 6 -6 23 86
127 152 171 488 498 667 648 701 586 1493 1007 2356 1255 668 191 1378 275
2056 241z m-6250 -2285 c184 -14 721 -55 1194 -90 473 -35 952 -71 1065 -80
113 -9 925 -69 1804 -136 880 -66 1601 -121 1602 -122 6 -5 -89 -2492 -95
-2499 -3 -3 -944 47 -2091 113 -1147 65 -2518 143 -3048 173 -1057 61 -1004
55 -1086 126 -37 33 -77 101 -90 152 -5 23 34 1788 47 2083 6 141 55 228 159
279 67 33 107 33 539 1z m12427 -1 c104 -51 153 -138 159 -279 13 -295 52
-2060 47 -2083 -21 -87 -88 -167 -171 -204 -45 -20 -42 -19 -1328 -93 -2286
-130 -4672 -265 -4725 -267 l-65 -3 -3 110 c-15 655 -40 2391 -34 2396 4 3 81
11 172 18 91 6 732 54 1425 106 693 52 1474 111 1735 130 261 20 936 71 1500
114 564 43 1072 79 1131 80 94 1 110 -2 157 -25z m-6383 6 c177 -17 173 -6
182 -446 l6 -334 -253 0 -253 0 7 108 c3 59 8 190 11 292 10 328 14 345 100
375 49 17 62 18 200 5z m219 -2682 c3 -51 12 -554 21 -1118 8 -564 18 -1132
21 -1262 l7 -238 -377 0 -378 0 7 123 c7 144 95 2495 95 2550 l0 37 299 0 299
0 6 -92z m-3597 -183 c1593 -91 2897 -166 2899 -168 1 -1 -29 -814 -67 -1807
-38 -993 -68 -1817 -69 -1832 0 -28 0 -28 -70 -28 l-70 0 0 60 0 60 -90 0 -90
0 0 -75 0 -75 -199 0 -199 0 -21 -34 c-12 -18 -24 -47 -27 -65 -6 -29 -9 -31
-50 -31 l-44 0 0 369 0 370 -32 3 -33 3 -3 143 -3 142 -244 0 -245 0 0 -169 0
-168 -275 -33 -275 -33 0 -374 0 -373 -120 0 -120 0 0 -180 0 -180 -85 0 -84
0 -3 132 -3 133 -427 3 -428 2 0 -80 c0 -78 -1 -80 -24 -80 -13 0 -37 -3 -54
-6 -29 -6 -31 -9 -36 -63 -3 -31 -3 -81 2 -111 l7 -54 43 -9 c35 -7 42 -12 42
-31 0 -21 -6 -24 -57 -30 l-57 -7 -99 98 c-60 60 -100 109 -104 125 -4 20 -13
29 -35 33 -33 8 -43 24 -34 59 4 18 14 26 34 28 21 2 28 9 30 29 3 23 -1 27
-33 33 -35 7 -36 9 -33 44 3 34 6 37 36 40 29 3 33 6 30 30 -2 21 -9 28 -30
30 -25 3 -28 7 -28 42 0 35 3 39 28 42 21 2 28 9 30 30 3 23 -1 27 -25 30 -25
3 -28 7 -31 46 -3 41 -2 42 27 42 28 0 31 3 31 29 0 26 -4 30 -32 33 -30 3
-33 6 -36 39 -3 35 -1 37 32 43 30 6 36 11 36 31 0 20 -6 25 -36 31 -33 6 -35
8 -32 43 3 33 6 36 36 39 28 3 32 7 32 33 0 26 -3 29 -31 29 -29 0 -30 1 -27
43 3 38 6 42 31 45 24 3 28 7 25 30 -2 21 -9 28 -30 30 -25 3 -28 7 -28 43 0
37 2 39 30 39 27 0 30 3 30 30 0 27 -3 30 -31 30 -29 0 -30 1 -27 43 3 38 6
42 31 45 24 3 28 7 25 30 -2 21 -9 28 -30 30 -25 3 -28 7 -28 43 0 36 3 40 30
46 23 4 30 11 30 28 0 24 -17 35 -51 35 -17 0 -20 6 -17 38 3 34 6 37 36 40
28 3 32 7 32 33 0 26 -3 29 -30 29 -28 0 -30 2 -30 40 0 37 3 41 31 47 25 5
30 10 27 32 -2 20 -9 27 -30 29 -25 3 -28 7 -28 43 0 37 2 39 30 39 27 0 30 3
30 29 0 26 -4 30 -32 33 -30 3 -33 6 -36 40 -3 35 -1 37 32 44 29 5 36 11 36
29 0 23 -17 35 -51 35 -15 0 -19 7 -19 39 0 36 2 39 35 45 28 6 35 11 35 31 0
18 -7 25 -30 30 -27 6 -30 10 -30 46 0 37 2 39 30 39 27 0 30 3 30 30 0 27 -3
30 -30 30 -28 0 -30 2 -30 39 0 36 3 40 30 46 42 9 42 46 0 62 -38 14 -38 29
0 37 26 5 30 10 30 37 0 23 -5 32 -21 36 -17 5 -19 10 -12 37 4 17 7 49 8 71
l0 40 -91 7 c-90 7 -192 26 -246 47 -20 8 -28 17 -28 36 0 14 3 25 8 25 7 0
469 93 520 105 19 5 22 12 22 60 l0 55 -135 0 -134 0 -3 58 -3 57 -65 10 c-81
12 -1019 11 -1080 -2 l-45 -8 -3 -58 -3 -57 -128 0 c-108 0 -130 -3 -135 -16
-10 -26 -7 -69 7 -85 7 -10 81 -30 192 -53 336 -71 315 -64 315 -96 0 -21 -7
-30 -27 -38 -58 -23 -111 -32 -214 -38 l-106 -7 13 -61 c17 -80 17 -83 -6 -89
-14 -4 -20 -14 -20 -35 0 -24 5 -31 32 -38 44 -13 46 -32 4 -40 -29 -5 -36
-11 -36 -30 0 -19 7 -24 35 -30 33 -6 35 -9 35 -44 0 -36 -2 -39 -32 -42 -27
-2 -34 -8 -36 -30 -3 -24 1 -27 30 -30 30 -3 33 -6 36 -39 3 -32 0 -38 -27
-49 -41 -17 -42 -48 -1 -56 27 -6 30 -10 30 -45 0 -32 -4 -39 -19 -39 -34 0
-51 -12 -51 -35 0 -18 7 -24 36 -29 33 -7 35 -9 32 -44 -3 -34 -6 -37 -36 -40
-29 -3 -33 -6 -30 -30 2 -22 9 -28 36 -30 30 -3 32 -6 32 -42 0 -36 -2 -39
-32 -42 -27 -2 -34 -8 -36 -29 -3 -23 1 -27 32 -33 34 -7 36 -9 36 -46 0 -39
-1 -40 -36 -40 -33 0 -35 -2 -32 -27 2 -22 9 -29 33 -33 26 -4 30 -10 33 -41
3 -35 1 -37 -32 -43 -30 -6 -36 -11 -36 -31 0 -20 6 -25 36 -31 33 -6 35 -8
32 -43 -3 -31 -7 -37 -33 -41 -24 -4 -30 -10 -30 -30 0 -19 7 -26 33 -34 30
-8 33 -12 30 -45 -3 -33 -6 -36 -36 -39 -29 -3 -33 -6 -30 -30 2 -22 9 -28 36
-30 30 -3 32 -6 32 -42 0 -36 -2 -39 -32 -42 -28 -2 -34 -8 -36 -30 -3 -23 0
-28 20 -28 37 0 50 -14 46 -51 -3 -30 -7 -34 -36 -37 -29 -3 -33 -6 -30 -30 2
-21 10 -28 33 -32 26 -4 30 -10 33 -41 3 -35 1 -37 -32 -43 -30 -6 -36 -11
-36 -31 0 -20 7 -25 35 -31 33 -6 35 -9 35 -44 0 -36 -2 -39 -32 -42 -28 -2
-33 -7 -33 -28 0 -20 6 -26 30 -30 26 -4 30 -10 33 -39 4 -37 -9 -51 -46 -51
-20 0 -23 -5 -20 -27 2 -23 8 -29 36 -31 30 -3 32 -6 32 -42 0 -36 -2 -39 -32
-42 -27 -2 -34 -8 -36 -30 -3 -24 1 -27 30 -30 30 -3 33 -6 36 -40 3 -35 1
-38 -30 -46 -26 -6 -33 -13 -33 -33 0 -20 6 -25 33 -27 30 -3 32 -6 32 -42 0
-35 -2 -38 -35 -44 -28 -6 -35 -11 -35 -31 0 -20 7 -25 35 -31 32 -6 35 -9 35
-40 0 -39 -23 -56 -45 -33 -45 48 -291 526 -390 759 -294 690 -458 1385 -506
2142 -15 230 -6 776 15 988 26 254 64 503 107 710 26 125 24 120 59 120 16 0
1333 -74 2927 -165z m9590 0 c39 -195 76 -452 100 -685 25 -249 25 -911 0
-1160 -55 -542 -150 -996 -310 -1470 l-52 -155 -3 1181 -2 1182 -45 6 -45 7 0
75 0 74 75 0 75 0 0 55 c0 54 0 55 -30 55 -28 0 -29 1 -32 57 -3 55 -4 57 -35
65 l-33 9 0 84 0 85 -129 0 c-102 0 -131 3 -141 15 -10 11 -36 15 -111 15
l-99 0 0 33 c-1 28 -6 35 -43 52 -39 19 -65 53 -81 108 -5 16 -30 17 -349 17
l-344 0 -70 -72 c-58 -61 -72 -82 -82 -125 l-13 -53 -66 0 c-37 0 -126 -9
-199 -22 -131 -22 -131 -22 -137 -51 -3 -16 -6 -44 -6 -63 0 -28 -4 -33 -27
-36 -26 -3 -28 -6 -31 -60 -3 -53 -5 -57 -30 -60 -25 -3 -27 -7 -30 -55 l-3
-53 75 0 76 0 0 -74 c0 -79 -5 -85 -67 -86 l-23 0 0 -1450 0 -1450 -77 0 c-78
0 -78 0 -109 38 -48 57 -116 167 -163 259 -34 68 -61 102 -155 197 -199 200
-293 344 -456 701 -50 110 -148 316 -217 458 l-125 258 27 61 c27 59 28 67 21
167 -3 57 -8 107 -11 109 -7 7 -85 -48 -94 -67 -5 -9 -12 -35 -16 -58 -8 -48
-17 -53 -39 -21 -22 32 -20 90 6 143 24 50 21 58 -30 71 -31 9 -48 -9 -61 -62
-7 -25 -19 -57 -28 -71 -20 -30 -28 -20 -43 54 -13 60 -37 83 -86 83 -39 0
-44 -11 -44 -96 0 -35 -4 -64 -9 -64 -5 0 -28 9 -52 20 -24 11 -59 20 -76 20
-30 0 -33 -3 -33 -28 0 -16 13 -68 30 -116 22 -65 27 -93 20 -106 -6 -10 -10
-43 -10 -72 0 -48 -7 -64 -71 -170 -73 -121 -116 -227 -126 -310 l-6 -48 48
-21 c41 -18 53 -20 85 -10 38 11 56 26 124 101 22 24 62 52 95 67 31 13 79 36
107 49 28 14 58 22 67 18 40 -15 103 -227 288 -982 88 -358 123 -464 211 -630
92 -174 90 -229 -18 -444 l-55 -109 -97 3 -97 3 -3 48 -3 47 -125 0 -124 0 0
69 0 70 -46 7 c-48 7 -452 -4 -466 -12 -5 -3 -8 -38 -8 -79 l0 -74 -37 -3 -38
-3 -3 -52 c-3 -50 -4 -53 -30 -53 l-27 0 47 668 c26 367 47 677 47 689 1 20
-23 35 -169 108 -94 47 -178 85 -187 85 -8 0 -42 -12 -75 -27 -51 -22 -63 -25
-80 -14 -17 10 -42 5 -169 -39 -101 -35 -167 -52 -206 -53 l-58 -2 -3 33 c-3
27 -7 32 -20 27 -9 -4 -80 -29 -157 -55 l-140 -47 4 -375 4 -375 -109 -6 c-59
-3 -111 -4 -113 -1 -6 6 -73 3855 -67 3861 2 2 478 31 1057 64 580 33 1862
107 2849 164 987 56 1833 102 1880 102 l85 -2 32 -160z m-5903 -5057 c3 -150
11 -579 16 -953 6 -374 11 -722 13 -773 l2 -92 -496 0 -496 0 4 73 c5 103 73
1935 73 1980 l0 37 439 0 438 0 7 -272z"/>
<path d="M1167 11429 c-91 -21 -164 -80 -203 -164 -30 -64 -48 -182 -39 -252
17 -140 63 -219 223 -387 167 -176 191 -219 192 -346 0 -119 -39 -166 -132
-158 -36 4 -57 12 -76 32 -25 24 -27 34 -30 120 l-4 93 -51 7 c-29 3 -78 6
-111 6 l-59 0 5 -112 c8 -181 56 -270 178 -327 49 -23 68 -26 165 -26 126 0
182 18 247 82 77 75 119 234 99 379 -20 138 -54 196 -232 387 -64 68 -128 144
-143 169 -57 97 -54 223 7 274 27 22 38 25 80 21 35 -3 56 -11 75 -31 24 -24
27 -35 30 -110 l4 -83 81 -7 c45 -3 95 -6 111 -6 l29 0 -5 103 c-10 200 -84
301 -246 336 -61 13 -141 13 -195 0z"/>
<path d="M1706 11362 c-3 -20 -6 -67 -6 -103 l0 -66 46 -7 c26 -3 80 -6 120
-6 l74 0 0 -28 c0 -16 -14 -303 -30 -637 -17 -335 -28 -611 -25 -613 3 -3 54
-8 114 -10 l109 -4 6 93 c8 109 56 1111 56 1153 l0 28 124 -4 124 -4 5 101 c2
55 3 102 1 104 -1 1 -123 9 -271 16 -147 8 -307 16 -354 19 l-87 5 -6 -37z"/>
<path d="M2629 11349 c-1 -2 -72 -332 -158 -734 -135 -628 -155 -731 -141
-737 8 -4 56 -7 107 -7 l91 -1 23 123 c33 180 15 163 163 157 86 -4 130 -10
135 -18 4 -7 13 -72 19 -144 7 -72 14 -133 15 -135 9 -8 227 -15 227 -7 -1 28
-168 1486 -171 1489 -5 4 -309 18 -310 14z m171 -617 c16 -183 30 -346 30
-361 l0 -28 -102 5 c-57 2 -104 5 -105 6 -3 3 123 678 133 716 10 35 10 34 44
-338z"/>
<path d="M3136 11229 c-3 -56 -4 -104 -2 -106 2 -2 57 -7 121 -11 l118 -7 -2
-85 c-2 -47 -15 -332 -30 -635 -15 -302 -26 -552 -25 -554 2 -2 53 -6 113 -9
110 -5 110 -5 115 19 3 13 17 290 31 614 15 325 29 601 31 614 5 23 5 23 123
19 l119 -4 6 59 c3 33 6 79 6 103 l0 43 -52 5 c-29 3 -163 10 -298 16 -135 6
-272 12 -306 15 l-61 5 -7 -101z"/>
<path d="M3976 11217 c-12 -145 -69 -1407 -64 -1413 7 -6 618 -38 623 -32 3 2
8 50 11 106 l7 102 -54 1 c-126 1 -338 15 -345 22 -7 6 12 446 19 453 2 2 73
0 158 -5 85 -5 155 -8 156 -7 4 3 16 206 12 206 -2 0 -73 5 -158 10 -85 5
-156 11 -158 14 -4 4 15 388 19 390 2 1 90 -2 196 -7 106 -5 196 -6 200 -2 4
4 9 51 10 104 l4 98 -279 12 c-153 6 -294 14 -314 16 l-37 5 -6 -73z"/>
<path d="M5305 11226 c-67 -17 -103 -37 -146 -83 -46 -48 -73 -102 -88 -173
-14 -73 -54 -878 -47 -958 11 -125 80 -228 184 -274 66 -29 218 -36 293 -14
122 35 198 134 219 286 18 126 50 889 40 947 -25 152 -115 245 -265 272 -73
14 -126 13 -190 -3z m192 -228 c42 -40 43 -67 19 -544 -20 -393 -25 -454 -41
-481 -23 -39 -53 -53 -111 -53 -37 0 -51 6 -74 29 -16 16 -32 40 -36 55 -9 35
35 912 48 945 12 32 37 61 63 72 32 14 106 1 132 -23z"/>
<path d="M5912 10498 c-18 -381 -35 -716 -38 -744 l-6 -51 114 -6 c62 -3 115
-3 117 -1 3 2 11 148 20 325 l15 321 153 -8 153 -7 0 69 c0 38 3 86 6 107 l7
37 -54 0 c-30 0 -98 3 -153 7 l-98 6 7 201 c4 111 10 205 14 209 4 4 90 3 191
-2 102 -6 185 -9 186 -8 8 8 15 207 8 207 -5 0 -130 7 -279 15 -148 8 -284 15
-300 15 l-31 0 -32 -692z"/>
<path d="M13003 11363 l-133 -4 0 -62 c0 -34 11 -361 25 -727 14 -366 25 -673
25 -682 0 -16 12 -18 109 -18 64 0 112 4 116 10 4 6 1 141 -5 301 -6 160 -10
293 -8 295 3 2 53 8 112 13 181 16 270 75 314 210 18 55 19 323 1 411 -37 178
-156 264 -357 258 -37 -1 -127 -4 -199 -5z m284 -223 c40 -24 49 -58 56 -215
9 -187 -11 -219 -144 -230 l-76 -7 -6 138 c-9 176 -9 319 0 327 3 4 36 7 72 7
48 0 75 -5 98 -20z"/>
<path d="M12249 11333 l-56 -4 -11 -82 c-123 -970 -176 -1406 -172 -1409 3 -2
51 -2 106 0 l102 4 12 116 c6 65 15 131 19 147 l7 30 131 3 c119 2 132 1 136
-15 3 -10 15 -74 27 -143 l23 -125 111 3 c61 2 112 5 114 7 2 2 -63 334 -144
739 l-147 736 -101 -2 c-56 -1 -126 -3 -157 -5z m169 -615 c34 -194 62 -359
62 -365 0 -10 -28 -13 -106 -13 l-107 0 6 33 c2 17 20 182 38 365 18 182 35
332 39 332 3 0 34 -159 68 -352z"/>
<path d="M11633 11313 c-118 -3 -133 -6 -133 -21 -1 -37 -108 -1054 -112
-1058 -4 -3 -189 1028 -188 1050 0 10 -315 4 -326 -7 -7 -7 29 -1197 43 -1397
l5 -85 97 3 c53 2 97 5 98 6 2 1 -6 241 -17 532 -20 539 -22 615 -12 579 2
-11 51 -263 107 -560 l102 -540 96 -3 96 -3 6 43 c3 24 32 279 65 567 32 288
62 526 65 529 3 3 5 -12 5 -34 0 -94 40 -1087 44 -1091 2 -3 52 -1 110 3 l106
7 -5 66 c-3 36 -14 343 -25 681 -11 338 -23 643 -26 678 l-6 62 -31 -2 c-18
-1 -92 -4 -164 -5z"/>
<path d="M10067 11254 c-169 -6 -309 -13 -312 -16 -7 -7 46 -1472 54 -1479 5
-4 611 15 630 20 4 1 -8 205 -12 206 -1 1 -90 -2 -197 -6 -107 -4 -197 -6
-199 -3 -7 7 -22 446 -15 453 3 3 74 8 157 11 l152 5 0 100 0 100 -160 0 -160
0 -9 193 c-4 106 -6 195 -4 198 3 2 79 7 169 10 90 3 179 7 197 10 l32 5 0 99
c0 54 -3 100 -7 102 -5 2 -146 -1 -316 -8z"/>
<path d="M9446 11233 l-109 -4 6 -102 c4 -56 9 -193 13 -303 l7 -201 -122 -8
c-68 -4 -125 -4 -129 -1 -3 4 -10 142 -16 307 l-9 300 -111 -7 c-61 -3 -113
-8 -116 -11 -5 -4 37 -1251 47 -1396 l6 -88 111 6 c61 4 112 8 113 9 1 1 -3
149 -9 329 -7 179 -10 329 -7 331 3 3 59 8 125 12 l121 7 6 -104 c4 -57 10
-209 13 -336 l7 -233 66 0 c36 0 89 3 116 6 l50 6 -27 727 c-15 399 -27 734
-27 744 -1 9 -4 16 -8 15 -5 -1 -57 -4 -117 -5z"/>
<path d="M8425 11194 c-165 -6 -324 -12 -352 -13 l-53 -1 0 -106 0 -107 124 7
123 7 6 -123 c4 -68 14 -341 22 -608 9 -267 19 -500 21 -519 l5 -34 112 7 c61
4 112 8 112 9 1 1 -8 277 -21 612 -13 336 -23 622 -23 638 l-1 27 94 0 c51 0
106 3 122 6 l29 5 -3 105 c-2 57 -6 103 -10 102 -4 0 -142 -7 -307 -14z"/>
<path d="M1570 2779 l-265 -258 27 -27 27 -27 193 186 c163 157 193 183 196
164 2 -12 -9 -177 -23 -365 -14 -188 -25 -347 -25 -353 0 -6 119 106 265 248
l264 258 -26 27 -26 27 -194 -186 c-106 -102 -195 -184 -197 -182 -2 2 9 171
24 374 15 204 27 371 26 371 0 1 -120 -115 -266 -257z"/>
<path d="M12322 2777 c-12 -13 -22 -27 -22 -33 0 -10 201 -566 208 -574 2 -3
63 57 136 133 72 75 135 137 141 137 5 0 33 -23 62 -52 l53 -52 28 27 27 28
-140 134 -140 133 -28 -26 -27 -26 54 -56 54 -55 -93 -99 -92 -98 -30 78 c-17
44 -59 157 -94 252 -35 94 -66 172 -69 172 -4 0 -16 -10 -28 -23z"/>
<path d="M11887 2357 c-120 -39 -179 -170 -127 -285 l19 -43 31 22 c16 13 30
24 30 25 0 1 -7 18 -16 39 -36 87 26 175 125 175 44 0 95 -35 114 -79 7 -16
13 -135 17 -313 3 -157 8 -289 12 -293 7 -7 358 283 358 296 0 4 -8 17 -19 30
l-18 23 -124 -103 -124 -104 -6 224 c-4 182 -9 232 -23 264 -19 45 -59 91 -96
110 -38 20 -111 26 -153 12z"/>
<path d="M2295 2095 c-187 -101 -344 -185 -350 -188 -13 -5 35 -46 55 -47 8 0
49 19 90 41 87 48 65 54 224 -71 l114 -90 -25 -91 -25 -91 23 -24 c12 -13 27
-24 33 -24 6 0 38 100 70 223 32 122 78 295 101 385 24 89 40 162 37 161 -4
-1 -160 -84 -347 -184z m195 -124 c-22 -79 -42 -146 -44 -148 -7 -7 -197 149
-194 159 5 15 273 155 276 144 1 -6 -16 -76 -38 -155z"/>
<path d="M11360 1964 c-105 -45 -166 -169 -137 -279 14 -56 157 -275 219 -337
45 -45 130 -73 195 -64 143 19 239 159 203 297 -12 48 -158 273 -212 328 -18
19 -51 42 -73 52 -49 23 -146 24 -195 3z m177 -74 c51 -31 213 -259 234 -330
32 -108 -82 -226 -197 -204 -20 4 -52 20 -71 37 -35 30 -142 178 -188 258 -41
72 -31 163 21 211 57 51 144 63 201 28z"/>
<path d="M2884 1654 c-104 -158 -192 -293 -196 -299 -5 -9 4 -20 24 -33 l32
-21 197 297 197 297 -27 22 c-14 13 -29 23 -32 23 -4 0 -92 -129 -195 -286z"/>
<path d="M3245 1513 c-71 -130 -149 -271 -173 -314 l-43 -78 32 -16 c17 -9 35
-13 39 -8 5 4 36 59 70 121 34 61 64 112 67 112 3 0 36 -17 74 -37 l69 -38 0
-152 c0 -83 3 -159 6 -168 6 -14 53 -45 69 -45 3 0 5 77 5 170 l0 170 35 0
c75 0 152 52 186 125 36 77 16 188 -42 242 -19 17 -252 154 -262 153 -1 0 -60
-107 -132 -237z m340 30 c70 -68 47 -180 -47 -229 -46 -24 -86 -17 -177 32
-47 26 -87 48 -89 49 -3 3 40 83 115 213 l24 43 71 -38 c39 -21 85 -52 103
-70z"/>
<path d="M10805 1622 c-98 -47 -147 -155 -114 -251 6 -17 14 -31 18 -31 5 0
25 12 59 35 1 1 -2 14 -7 29 -23 59 31 146 99 159 45 10 114 -22 134 -62 25
-47 20 -113 -30 -382 -25 -138 -44 -254 -42 -259 2 -8 210 101 375 196 l43 25
-17 27 c-9 15 -18 28 -19 30 0 1 -63 -32 -138 -74 -76 -41 -140 -74 -142 -71
-3 2 12 92 32 198 43 235 43 297 -1 360 -55 78 -168 110 -250 71z"/>
<path d="M4075 1327 c-152 -39 -254 -151 -284 -309 -29 -159 61 -323 217 -396
50 -24 69 -27 157 -27 88 0 107 3 157 27 147 69 238 245 208 403 -32 171 -169
293 -346 309 -34 3 -81 0 -109 -7z m210 -91 c69 -31 106 -65 140 -128 27 -47
30 -62 30 -138 -1 -102 -24 -160 -95 -231 -60 -60 -127 -83 -219 -77 -169 12
-292 150 -279 312 18 222 228 351 423 262z"/>
<path d="M9736 1094 c-13 -128 -57 -736 -53 -740 2 -2 18 1 35 7 34 12 37 20
46 138 2 35 9 67 16 71 6 4 76 29 156 56 l145 49 67 -72 67 -72 36 17 37 17
-196 210 c-107 116 -230 248 -272 294 l-78 84 -6 -59z m189 -247 c56 -62 94
-111 89 -116 -8 -7 -221 -81 -234 -81 -4 0 14 310 19 330 0 2 7 -2 14 -10 7
-8 58 -64 112 -123z"/>
<path d="M4855 1077 c-29 -80 -193 -673 -187 -679 15 -14 258 -78 297 -78 102
1 187 78 201 184 8 58 -10 108 -53 146 -19 17 -34 32 -32 33 2 1 22 11 44 22
46 24 73 65 81 128 8 60 -23 128 -75 162 -49 32 -271 98 -276 82z m152 -107
c87 -25 123 -60 123 -120 0 -48 -45 -105 -90 -115 -24 -5 -169 26 -188 41 -2
1 3 28 12 58 9 31 23 81 32 110 9 33 20 53 27 51 7 -2 44 -13 84 -25z m-72
-290 c79 -23 97 -32 129 -71 39 -46 37 -116 -5 -164 -51 -58 -91 -64 -210 -30
-60 17 -98 32 -96 39 3 6 19 63 37 126 18 63 34 119 37 123 3 4 14 5 25 1 11
-3 48 -14 83 -24z"/>
<path d="M9341 1001 c-22 -6 -31 -26 -81 -193 -30 -103 -58 -189 -61 -192 -3
-3 -67 59 -142 138 l-137 144 -38 -10 c-20 -5 -39 -12 -42 -14 -2 -3 73 -82
167 -177 l172 -172 35 -138 c19 -76 36 -141 39 -143 8 -9 58 8 63 21 3 6 -10
72 -29 145 l-33 134 68 226 c37 124 68 228 68 233 0 8 -15 8 -49 -2z"/>
<path d="M5534 896 c-6 -17 -144 -671 -144 -683 0 -10 60 -25 69 -17 7 6 150
687 146 694 -8 13 -67 18 -71 6z"/>
<path d="M8588 833 c-18 -3 -28 -10 -28 -21 0 -9 15 -129 34 -267 19 -137 33
-251 32 -252 -1 -2 -131 107 -287 241 -156 134 -285 243 -286 242 -1 -1 20
-164 47 -361 28 -198 50 -361 50 -362 0 -5 48 -3 63 3 8 3 12 14 10 27 -17
100 -68 507 -63 507 4 0 132 -108 286 -240 153 -131 279 -238 281 -236 3 3
-79 617 -92 694 -3 17 -9 31 -13 31 -4 -1 -19 -4 -34 -6z"/>
<path d="M6690 718 c0 -13 -7 -171 -15 -353 -8 -181 -15 -333 -15 -337 0 -5
18 -8 40 -8 l40 0 1 83 c1 45 4 124 8 175 l6 92 153 -179 c149 -174 155 -180
198 -187 25 -3 47 -4 50 -1 4 3 -61 84 -142 179 -82 95 -155 180 -162 189 -11
15 3 32 105 131 65 63 143 137 173 166 l55 52 -50 0 -50 0 -162 -155 c-89 -85
-164 -155 -166 -155 -5 0 -3 65 7 258 l4 72 -39 0 c-34 0 -39 -3 -39 -22z"/>
<path d="M7538 733 l-128 -4 1 -72 c1 -147 25 -637 32 -643 3 -3 96 -3 207 1
l200 7 0 36 0 35 -168 -6 -169 -7 -6 91 c-11 145 -9 176 9 183 9 3 61 6 117 6
56 0 119 3 140 6 36 7 38 8 31 38 -3 17 -7 31 -8 32 0 1 -66 -2 -146 -5 -94
-4 -148 -3 -152 4 -4 5 -8 58 -8 116 l0 106 160 8 160 7 0 34 0 34 -72 -2
c-40 -1 -130 -4 -200 -5z"/>
<path d="M5690 134 c-34 -58 -59 -108 -57 -110 3 -3 16 -6 30 -7 21 -2 38 15
106 103 86 113 87 118 15 119 -30 1 -35 -5 -94 -105z"/>
</g>
</svg>
