<svg xmlns="http://www.w3.org/2000/svg" id="Layer_1" width="1370.612" height="1310.063" data-name="Layer 1" version="1.1"><defs id="defs3303"><style id="style3301">.cls-1{fill:none}.cls-2{stroke:#231f20;stroke-width:9.51px;fill:#fff;stroke-miterlimit:10}</style></defs><g id="Layer_2" data-name="Layer 2" transform="translate(-513.154 -121.68)"><g id="g3427"><path id="path3305" d="M1200.46 131.19c-87.49 0-172.36 17.13-252.25 50.93-77.17 32.64-146.47 79.37-205.99 138.89C682.7 380.53 635.97 449.83 603.33 527c-33.79 79.89-50.93 164.76-50.93 252.25 0 87.49 17.13 172.36 50.93 252.25 32.64 77.17 79.37 146.47 138.89 205.99 59.52 59.52 128.82 106.25 205.99 138.89 79.89 33.79 164.76 50.93 252.25 50.93 87.49 0 172.36-17.13 252.25-50.93 77.17-32.64 146.47-79.37 205.99-138.89 59.52-59.52 106.24-128.82 138.88-205.99 33.79-79.89 50.93-164.76 50.93-252.25 0-87.49-17.13-172.36-50.93-252.25-32.64-77.17-79.37-146.47-138.88-205.99-59.52-59.52-128.82-106.25-205.99-138.89-79.89-33.79-164.76-50.93-252.25-50.93z" class="cls-1"/><g id="g3345"><path id="path3307" d="M684.66 1187.15z" class="cls-1"/><path id="path3309" d="M725.17 1233.63c-.41-.43-.83-.86-1.24-1.29.41.43.83.86 1.24 1.29z" class="cls-1"/><path id="path3311" d="M1471.18 1378.66c-4.89 2.21-9.82 4.37-14.78 6.46 4.96-2.1 9.88-4.25 14.78-6.46z" class="cls-1"/><path id="path3313" d="M1485.84 1371.81c-4.41 2.12-8.85 4.19-13.31 6.22 4.46-2.03 8.91-4.09 13.31-6.22z" class="cls-1"/><path id="path3315" d="M714.64 1222.36c-.68-.74-1.35-1.48-2.03-2.22.67.74 1.35 1.48 2.03 2.22z" class="cls-1"/><path id="path3317" d="M1549.81 1336.43c-6.82 4.29-13.71 8.46-20.69 12.49 6.98-4.03 13.87-8.21 20.69-12.49z" class="cls-1"/><path id="path3319" d="M1608.39 1295.01z" class="cls-1"/><path id="path3321" d="M704.16 1210.62c-.87-1-1.74-2-2.6-3.01.87 1.01 1.73 2.01 2.6 3.01z" class="cls-1"/><path id="path3323" d="M1514.5 1357.13z" class="cls-1"/><path id="path3325" d="M1560.95 1329.27a625.36 625.36 0 0 0 0 0z" class="cls-1"/><path id="path3327" d="M1562.2 1328.46a613.198 613.198 0 0 1 0 0z" class="cls-1"/><path id="path3329" d="M1634.13 1273.5c1.02-.9 2.04-1.81 3.05-2.71-1.02.9-2.03 1.81-3.05 2.71z" class="cls-1"/><path id="path3331" d="M1806.34 523.29c-33.12-78.3-80.53-148.62-140.92-209.01-60.39-60.39-130.71-107.8-209.01-140.92-81.07-34.29-167.19-51.68-255.95-51.68-88.76 0-174.88 17.39-255.95 51.68-78.3 33.12-148.62 80.53-209.01 140.92-60.39 60.39-107.8 130.71-140.92 209.01-34.29 81.07-51.68 167.18-51.68 255.95 0 88.77 17.39 174.88 51.68 255.95 13.63 32.23 29.73 63.08 48.11 92.48 1.89-.32 3.65-.62 5.67-.97l-1.72-6.41c-2.2-.21-2.4-2.23-4.73-2.45v-5.25c2.25-.22 4.16-.41 6.49-.64v-7.9c-1.93-.23-3.84-.46-6.37-.77-.19-1.46-.4-3.08-.65-5.03 2.56-.3 4.65-.55 7.08-.84v-7.95l-6.62-1.06v-4.88c2.25-.4 4.33-.77 6.68-1.19v-8.01c-2.3-.23-4.4-.44-6.74-.67v-5.06c2.16-.25 4.07-.48 6.52-.77v-8.03c-2.06-.19-3.98-.38-6.24-.59-.23-1.62-.44-3.1-.71-4.96 2.4-.36 4.48-.68 7.01-1.06v-8.16c-2.17-.28-4.1-.54-6.44-.84v-5.17c2.26-.26 4.18-.49 6.49-.76v-7.92c-2.09-.28-4.17-.55-6.57-.87v-4.94c2.1-.3 4.18-.59 6.61-.93v-7.83c-2.06-.26-3.97-.5-6.47-.81-.14-1.57-.29-3.18-.47-5.07 2.43-.31 4.34-.56 6.78-.87v-8.26c-2.12-.27-4.21-.54-6.48-.84v-5.03c2.2-.28 4.11-.52 6.52-.83v-7.76c-1.87-.28-3.94-.6-6.37-.97-.17-1.49-.35-2.99-.56-4.84 2.39-.32 4.48-.6 6.99-.93v-7.83c-1.96-.38-4.01-.77-6.46-1.24-.12-1.47-.25-2.93-.4-4.71 2.4-.46 4.48-.85 6.91-1.32v-7.88c-2.06-.28-4.16-.56-6.59-.89v-4.86c2.08-.32 4.15-.63 6.59-1.01v-7.78c-2.05-.24-3.96-.46-6.46-.76-.15-1.56-.31-3.18-.49-5.12 2.42-.26 4.35-.46 6.8-.72v-8.19c-2.09-.35-4.17-.69-6.46-1.08v-4.9c2.21-.32 4.12-.6 6.52-.94v-7.81l-6.43-.93v-5.15c2.19-.18 4.12-.33 6.47-.52v-7.92c-1.85-.27-3.74-.55-6.29-.93-.2-1.39-.44-3-.72-4.98 2.58-.38 4.66-.69 7.08-1.04v-8.06c-2.12-.33-4.2-.65-6.24-.97q-.7-4.92 6.12-5.74v-8.09c-2.07-.18-3.99-.35-6.29-.55-.2-1.57-.39-3.05-.64-4.91 2.41-.36 4.49-.66 6.99-1.04v-8.04c-2.21-.31-4.13-.58-6.44-.91-.13-1.56-.24-3-.39-4.75 2.46-.37 4.55-.68 6.74-1.01.96-6.11-4.56-2.51-6.52-4.98v-5.45c1.26-.39 2.51-.77 4.04-1.24-.94-4.72-1.85-9.31-2.95-14.84 12.17.07 23.43-.17 34.69-4.9.08-1.64.17-3.7.29-6.25-17.38-3.7-34.38-7.32-51.76-11.03-.13-1.87-.33-3.59-.35-5.32-.02-1.74.15-3.48.26-5.85h26.51c.21-3.93.39-7.24.61-11.3 3.65-.59 7.28-1.6 10.93-1.69 22.63-.57 45.26-1.29 67.89-1.23 12.67.03 25.34 1.45 38.01 2.28.95.06 1.89.43 3.38.78.19 3.52.37 6.98.59 11.07h26.5v11.22c-18.23 3.69-36.6 7.4-55.12 11.15v5.37c12.17 4.25 24.31 6.55 36.53 5.42 2.64 5.7-.55 10.09-1.51 14.87 1.62.56 2.87.99 4.4 1.52v6.05c-2.13.31-4.21.61-6.26.91q-.17 3.49 6.17 4.52v4.55c-2.11.34-4.03.64-6.45 1.03v8.15c2.01.18 3.93.35 6.45.58.08 1.62.15 3.23.24 5.17-2.44.22-4.36.39-6.74.6v7.92c1.91.35 3.96.73 6.4 1.17.14 1.47.28 2.93.44 4.72-2.29.28-4.21.51-6.87.84-.13 2.49-.27 5.12-.42 8.04 2.53.44 4.6.8 6.99 1.21v4.79c-2.22.38-4.29.73-6.66 1.13v7.9c2.19.17 4.12.31 6.6.5.1 1.68.2 3.3.32 5.23-2.41.24-4.33.44-6.76.68v8.08c2.11.25 4.02.48 6.3.76.19 1.6.37 3.07.58 4.87-2.41.43-4.48.81-6.95 1.25v8.2c2.29.21 4.21.38 6.48.59v5.27l-6.51.62v7.94c2 .23 3.91.44 6.42.73.17 1.5.35 3.12.57 5.1-2.42.23-4.35.41-6.84.64v8.1c2.01.37 4.08.75 6.44 1.19v4.83c-2.12.35-4.04.66-6.47 1.07v8.06c1.99.19 3.92.38 6.44.62.08 1.56.17 3.17.28 5.11-2.39.27-4.31.49-6.74.77v7.75c1.84.31 3.9.65 6.32 1.06l.58 4.79c-2.4.37-4.48.7-6.97 1.09v8.22c2.25.26 4.17.49 6.47.75v5.22l-6.51.71v7.96c2.13.25 4.22.49 6.6.76v5.03c-2.14.28-4.23.56-6.64.88v7.87c2.1.27 4 .52 6.5.84l.41 5.05c-2.44.33-4.36.58-6.76.91v8.26c2.05.23 3.97.45 6.36.72v5.15c-2.1.24-4.02.46-6.4.73v7.79c1.93.3 4 .62 6.43 1 .15 1.52.3 3.01.48 4.83-2.4.32-4.49.59-6.97.92v7.87c2.03.4 4.09.8 6.55 1.28.09 1.45.19 2.93.3 4.72l-6.47 1.19c-1.41 6.09-1.95 7.92 6.35 8.92-.43 4.01 1.82 6.77 4.66 9.43 5.35 5.03 10.45 10.33 15.66 15.51.28.28.6.51.41.35 4.01-.51 7.56-.97 11.6-1.48.08-1.57.17-3.21.27-5.25-3.12-.24-5.83-.45-8.5-.66-1.44-4.12-1.71-15.54-.5-23.21 1.62-.1 3.34-.25 5.07-.3 1.76-.05 3.52-.01 6.02-.01.1-3.12.22-5.8.27-8.49.04-2.54 0-5.08 0-8.02h85.61v27.04h17.9v-36.04h24.27v-75.56c18.71-2.26 36.91-4.47 55.82-6.76v-34.17h49.2v28.84c2.47.36 4.37.63 6.85.99v74.7h9.68c-.47-4.8 1.54-8.94 5.01-13.4l40.44-.44v-15.05h18.02v12.37l23.06.44c.52 1.9.86 3.17 1.29 4.75 2.13.19 4.25.39 7.12.65v14.79l104.77-1.03c.26-25.29-.67-50.53-1.26-76.26 10.65-3.61 21.07-7.14 31.89-10.8.37 2.68.67 4.76.98 7.02 15.43.31 28.3-7.8 42.67-11.47l1.89 2.67c.59-.08 1.21-.05 1.73-.26 4.37-1.78 8.73-5.04 13.07-5.01 4.14.03 8.27 3.45 12.38 5.42 7.51 3.6 15 7.22 22.49 10.86.32.16.53.57 1.09 1.21-3.2 45.89-6.42 92.1-9.67 138.68h5.88c.22-3.42.44-6.85.68-10.55 2.66-.21 4.97-.4 7.98-.64v-15.37c30.93-1.33 20.23-1.78 51.22-.92v14.28h25.74c.19 3.79.34 6.9.53 10.68h19.55c3.6-7.02 7.73-13.81 10.7-21.08 4.18-10.23 6.3-20.01-.64-31.1-9.24-14.77-14.96-31.39-19.03-48.56-7.66-32.33-15.94-64.51-24.21-96.68-1.61-6.25-4.03-12.34-6.64-18.26-2.04-4.63-4.13-4.82-8.45-2.47-3.79 2.06-7.65 4.18-11.72 5.51-6.12 1.99-10.21 6.1-13.82 11.07-5.08 6.99-12.54 8.62-19.86 4.18-1.21-.73-2.59-2.93-2.31-4.06 1.64-6.67 3.33-13.39 5.84-19.77 1.76-4.46 4.86-8.39 7.35-12.56 2.14-3.58 4.06-7.31 6.44-10.72 1.8-2.57 2.14-4.72.83-7.69-.69-1.57 0-3.97.61-5.82.44-1.31 1.8-2.3 2.75-3.44-.44.04-.88.09-1.32.13-1.98-5.94-4.24-11.8-5.85-17.84-1.29-4.82-.12-6.04 4.9-4.95 3.77.82 7.3 2.77 11.93 4.61.29-4.45.96-8.83.72-13.15-.16-2.84.82-3.9 3.2-3.71 3.85.3 7.81.58 8.61 5.79.5 3.24 1.53 6.4 2.61 10.74 1.91-2.08 3.41-3.08 3.95-4.46.95-2.41 1.09-5.13 1.98-7.58.56-1.57 1.65-3.84 2.84-4.07 1.88-.37 4.11.52 6.05 1.26.81.31 1.23 1.6 1.78 2.37-4.54 4.87-5.19 10.72-3.86 16.76.33 1.5 2.61 2.58 4.46 4.27 1-4.65.91-8.54 2.66-11.25 1.82-2.83 5.4-4.53 8.2-6.72.49.32.99.63 1.48.95-.53 9.58 3.45 19.48-2.68 28.66-2.03 3.03-1.59 5.28.09 8.67 10.85 21.86 21.64 43.78 31.62 66.04 10.59 23.63 21.63 46.84 40.05 65.64 1.18 1.2 2 2.77 3.2 3.95 3.8 3.72 7.69 7.33 11.56 10.98.96.91 2.26 1.62 2.86 2.71 4.51 8.22 8.29 16.9 13.44 24.68 3.43 5.18 7.12 10.3 11.4 14.8h15.75c.11-20.04.04-39.38.05-58.73.01-19.44 0-38.89 0-58.33V763.17c3.11-.32 5.77-.59 8.87-.91v-15.7h-15.03v-10.17c2.03-.27 3.93-.52 6.47-.86v-11.29c2.22-.44 3.87-.77 5.9-1.17.18-3.9.36-7.6.56-11.93 13.22-2.22 26.2-5.83 40.57-4.96.76-2.96 1.45-5.87 2.28-8.74.32-1.1.73-2.3 1.47-3.11 3.63-3.94 7.3-7.85 11.16-11.57 1.02-.99 2.73-1.79 4.12-1.79 22.05.05 44.1.24 66.14.41.17 0 .34.17 1.2.62.41 7.19 4.47 12.15 12.17 13.64.21 2.37.38 4.33.61 6.87 5.34 0 10.67-.04 16 .02 1.86.02 3.76-.49 5.13 1.9.58 1.02 3.11 1.25 4.76 1.28 7.34.13 14.68.06 22.67.06v16.92c2.22.56 3.89.99 6.17 1.56v11.16c2.43.33 4.32.59 6.7.91v10.21h-14.99v15.63c2.75.31 5.42.62 8.7.99v266.11c-.81 1.98-1.63 3.95-2.46 5.92 34.29-81.07 51.68-167.18 51.68-255.95 0-88.77-17.39-174.88-51.68-255.95z" class="cls-1"/><path id="path3333" d="M646.07 1133.11c.72 1.12 1.47 2.23 2.19 3.35v-3.01c-.72-.11-1.45-.22-2.19-.34z" class="cls-1"/><path id="path3335" d="M675.91 1175.85z" class="cls-1"/><path id="path3337" d="M666.64 1163.32z" class="cls-1"/><path id="path3339" d="M657.38 1150.14z" class="cls-1"/><path id="path3341" d="M693.85 1198.5c-1.03-1.25-2.06-2.5-3.08-3.76 1.02 1.25 2.05 2.51 3.08 3.76z" class="cls-1"/></g><path id="path3385" d="m1227.74 401 610.5-45.86c18.81-1.41 34.98 13.2 35.46 32.06l5.3 207.4c.46 17.82-13.32 32.77-31.11 33.79l-615.67 35.05" class="cls-2"/><path id="path3387" d="m1171.68 401.19-612.99-46.05c-18.81-1.41-34.98 13.21-35.47 32.07l-5.3 207.38c-.46 17.82 13.32 32.78 31.12 33.79l612.78 34.89" class="cls-2"/><path id="path3389" d="m1135.95 1428.18 39.61-1054.14c.55-11.61 9.83-17.29 22.94-16.63l21.59 1.82c5.94 1.63 9.92 11.02 10.09 17.18l17.98 1053.71" style="stroke:#000;stroke-width:7.92px;fill:#fff;stroke-miterlimit:10"/><path id="path3391" d="M1166.2 624c3.97-61.87 3.97-122.07 7.25-183.67l58.19-.13c.31 61.72 1.89 121.92 3.06 183.26z"/><path id="path3393" d="M1236.49 897.23c1.34 79.96 2.92 157.58 4.41 237.21l-97.69-.04c4.32-79.59 5.91-158.79 9.06-237.27l84.23.1z"/><path id="path3395" d="M1135.8 1428.18c.66-27.57 1.41-55.14 2.26-82.7l110.03.21c.54 27.72-.09 58.05-.09 86.02 0 0-65.54.33-91.28-1.11-13.29-.74-20.92-2.42-20.92-2.42z"/><g id="g3411"><path id="path3397" d="M565.95 566.32c-5.57-6.81-8.05-16.32-7.45-28.51l.42-8.61 22.38 1.09-.5 10.33c-.48 9.76 3.38 14.83 11.55 15.23 4.01.2 7.12-.84 9.32-3.11 2.19-2.27 3.42-6.05 3.68-11.36.31-6.31-.86-11.94-3.49-16.89-2.64-4.94-7.66-10.98-15.08-18.1-9.34-9.08-15.77-17.2-19.3-24.35-3.53-7.15-5.09-15.09-4.66-23.85.58-11.91 4.04-20.98 10.39-27.21 6.34-6.23 15.25-9.07 26.73-8.51 11.33.55 19.75 4.24 25.24 11.04 5.49 6.81 7.94 16.32 7.35 28.51l-.3 6.24-22.38-1.09.38-7.75c.25-5.17-.57-8.98-2.46-11.44-1.9-2.47-4.78-3.79-8.65-3.98-7.89-.38-12.07 4.23-12.54 13.84-.27 5.45.96 10.62 3.67 15.49 2.71 4.88 7.77 10.88 15.19 18 9.48 9.09 15.91 17.24 19.3 24.45 3.39 7.21 4.85 15.55 4.39 25.02-.6 12.34-4.11 21.66-10.53 27.96-6.42 6.3-15.44 9.17-27.06 8.6-11.48-.56-20-4.24-25.56-11.06z"/><path id="path3399" d="m665.69 449.42-24.75-1.21 1.05-21.52 73.17 3.57-1.05 21.52-24.75-1.21-6.3 129.11-23.67-1.15z"/><path id="path3401" d="m734.96 431.23 32.06 1.56 17.19 151.83-23.67-1.15-2.85-30.12-.02.43-26.9-1.31-5.74 29.27-21.95-1.07zm20.91 101.97-6.91-74.97-.43-.02-13.96 73.95z"/><path id="path3403" d="m810.52 456.48-24.75-1.21 1.05-21.52 73.17 3.57-1.05 21.52-24.75-1.21-6.3 129.11-23.67-1.15z"/><path id="path3405" d="m871.39 437.88 64.56 3.15-1.05 21.52-40.89-1.99-1.94 39.81 32.49 1.58-1.05 21.52-32.49-1.58-2.26 46.27 40.89 1.99-1.05 21.52-64.56-3.15 7.34-150.63z"/><path id="path3407" d="M984.5 586.62c-5.85-6.9-8.48-16.38-7.89-28.43l3.86-79.19c.59-12.05 4.12-21.22 10.62-27.52 6.49-6.3 15.55-9.16 27.17-8.6 11.62.57 20.35 4.3 26.2 11.2 5.84 6.9 8.48 16.38 7.89 28.43l-3.86 79.19c-.59 12.05-4.13 21.23-10.62 27.52-6.49 6.3-15.55 9.16-27.17 8.6-11.62-.57-20.36-4.3-26.2-11.2zm40.24-24.57 4.01-82.2c.48-9.9-3.36-15.05-11.54-15.45-8.18-.4-12.51 4.35-12.99 14.25l-4.01 82.2c-.48 9.9 3.36 15.05 11.54 15.45 8.18.4 12.51-4.35 12.99-14.25z"/><path id="path3409" d="m1070.01 447.56 62.62 3.05-1.05 21.52-38.95-1.9-2.05 41.96 30.56 1.49-1.05 21.52-30.56-1.49-3.2 65.63-23.67-1.15 7.34-150.63z"/></g><g id="g3425"><path id="path3413" d="m1304.8 469.34-24.76.9-.78-21.53 73.2-2.66.78 21.53-24.76.9 4.69 129.18-23.68.86z"/><path id="path3415" d="m1363.87 445.64 23.68-.86 2.23 61.36 25.41-.92-2.23-61.36 23.68-.86 5.47 150.71-23.68.86-2.46-67.82-25.41.92 2.46 67.82-23.68.86z"/><path id="path3417" d="m1454.3 442.36 64.59-2.34.78 21.53-40.91 1.48 1.44 39.83 32.51-1.18.78 21.53-32.51 1.18 1.68 46.29 40.91-1.48.78 21.53-64.59 2.34-5.47-150.71z"/><path id="path3419" d="m1566.9 438.28 33.8-1.23 18.98 107.32.43-.02 11.16-108.42 33.8-1.23 5.47 150.71-22.39.81-4.14-114.11-.43.02-13.09 114.74-19.81.72-21.36-113.49-.43.02 4.14 114.11-20.67.75-5.47-150.71z"/><path id="path3421" d="m1701.04 433.41 32.08-1.16 30.01 149.82-23.68.86-5.39-29.77.02.43-26.91.98-3.24 29.65-21.96.8 19.08-151.6zm29.49 99.83-13.25-74.11-.43.02-7.63 74.87 21.31-.77z"/><path id="path3423" d="m1769.08 430.94 34.88-1.27c11.77-.43 20.71 2.41 26.83 8.51 6.11 6.1 9.39 15.26 9.83 27.45l.54 14.86c.44 12.2-2.17 21.57-7.82 28.1-5.66 6.53-14.37 10.01-26.14 10.43l-11.2.41 2.23 61.36-23.68.86zm37.34 66.56c3.88-.14 6.74-1.32 8.6-3.55 1.86-2.22 2.7-5.92 2.51-11.09l-.65-17.87c-.19-5.17-1.29-8.79-3.31-10.88-2.02-2.08-4.96-3.05-8.84-2.91l-11.2.41 1.68 46.29 11.2-.41z"/></g></g></g></svg>